<svg width="374" height="471" viewBox="0 0 374 471" fill="none" xmlns="http://www.w3.org/2000/svg">
<path d="M374 467.5L290 258.5L267.5 467.5H374Z" fill="#5F6D73"/>
<path d="M180.659 221.871L206.788 147.57L251.07 182.664C258.038 193.54 263.612 220.5 230.167 241.337C196.722 262.175 183.226 237.042 180.659 221.871Z" fill="#A66844" stroke="#D99F6C"/>
<ellipse cx="200.157" cy="120.808" rx="23.3206" ry="29.0552" fill="#A66844"/>
<ellipse cx="248.327" cy="117.368" rx="47.7882" ry="64.6096" fill="#D99F6C"/>
<ellipse cx="235.711" cy="109.722" rx="3.82305" ry="11.0869" fill="#733D29"/>
<ellipse cx="268.589" cy="109.722" rx="3.82305" ry="11.0869" fill="#733D29"/>
<path d="M264.163 142.18C254.418 143.711 235.018 135.707 226.536 131.513C232.221 140.265 234.386 145.188 247.65 150.932C260.915 156.675 276.345 140.265 264.163 142.18Z" fill="#FFF5E9" stroke="#F2CEA2"/>
<path d="M59.0862 335.372C100.205 246.948 202.233 103.19 281.399 235.55C380.358 401 82.3866 517.056 59.0862 335.372Z" fill="#6F8F9C"/>
<rect x="78.2014" y="370.836" width="194.211" height="100.164" fill="#6F8F9C"/>
<rect x="260.179" y="304.315" width="83.3425" height="95.5763" fill="#F2CEA2"/>
<path d="M149.022 179.055C188.554 166.545 198.437 193.778 198.437 208.959C199.574 217.299 117.284 282.848 75.9976 314.58C109.033 318.879 182.405 328.791 211.615 334.059C248.127 340.643 229.734 402.919 211.615 431.725C197.12 454.77 84.0504 422.123 29.3277 402.919C-37.637 334.059 31.3043 263.662 29.3277 258.615C26.8569 252.305 99.607 194.693 149.022 179.055Z" fill="#5F6D73"/>
<path d="M295.07 354.545C299.23 328.659 256.116 343.759 234.038 354.545C231.028 366.245 225.007 392.99 225.007 406.372C225.007 423.099 289.87 386.903 295.07 354.545Z" fill="#A66844"/>
<path d="M341.167 137.46C320.791 158.248 262.212 70.8242 262.212 54.0229C238.653 93.3209 189.306 119.235 189.306 130.91C189.306 140.251 203.951 154.926 211.273 161.096C218.596 172.391 230.566 194.983 219.869 194.983C206.498 194.983 198.22 165.082 198.22 175.334C198.22 185.586 114.808 168.784 198.22 194.983C281.632 221.182 244.702 239.407 78.1963 255.069C-88.3091 270.731 57.8209 229.155 95.7064 184.731C133.592 140.308 87.1106 161.096 104.621 99.5858C122.131 38.0759 152.694 77.3739 189.306 54.0229C225.918 30.6719 202.359 32.9501 271.126 7.03617C339.893 -18.8777 309.012 31.811 341.167 77.3739C373.322 122.937 361.542 116.672 341.167 137.46Z" fill="#733D29"/>
</svg>
